<svg width="20" height="20" viewBox="0 0 20 20" fill="none" xmlns="http://www.w3.org/2000/svg">
    <path d="M12.4993 0.833328H3.33268C2.41602 0.833328 1.66602 1.58333 1.66602 2.49999V13.3333C1.66602 13.7917 2.04102 14.1667 2.49935 14.1667C2.95768 14.1667 3.33268 13.7917 3.33268 13.3333V3.33333C3.33268 2.87499 3.70768 2.49999 4.16602 2.49999H12.4993C12.9577 2.49999 13.3327 2.12499 13.3327 1.66666C13.3327 1.20833 12.9577 0.833328 12.4993 0.833328ZM15.8327 4.16666H6.66602C5.74935 4.16666 4.99935 4.91666 4.99935 5.83333V17.5C4.99935 18.4167 5.74935 19.1667 6.66602 19.1667H15.8327C16.7493 19.1667 17.4993 18.4167 17.4993 17.5V5.83333C17.4993 4.91666 16.7493 4.16666 15.8327 4.16666ZM14.9993 17.5H7.49935C7.04102 17.5 6.66602 17.125 6.66602 16.6667V6.66666C6.66602 6.20833 7.04102 5.83333 7.49935 5.83333H14.9993C15.4577 5.83333 15.8327 6.20833 15.8327 6.66666V16.6667C15.8327 17.125 15.4577 17.5 14.9993 17.5Z" fill="#9B9BA1"/>
</svg>
